G04 #@! TF.FileFunction,Legend,Bot*
%FSLAX46Y46*%
G04 Gerber Fmt 4.6, Leading zero omitted, Abs format (unit mm)*
G04 Created by KiCad (PCBNEW 4.0.2-stable) date 21/05/2016 17:12:47*
%MOMM*%
G01*
G04 APERTURE LIST*
%ADD10C,0.100000*%
%ADD11C,0.300000*%
%ADD12C,0.200000*%
G04 APERTURE END LIST*
D10*
D11*
X18678571Y-23178571D02*
X18678571Y-21678571D01*
X17821428Y-23178571D01*
X17821428Y-21678571D01*
X17107142Y-23178571D02*
X17107142Y-21678571D01*
X16535714Y-21678571D01*
X16392856Y-21750000D01*
X16321428Y-21821429D01*
X16249999Y-21964286D01*
X16249999Y-22178571D01*
X16321428Y-22321429D01*
X16392856Y-22392857D01*
X16535714Y-22464286D01*
X17107142Y-22464286D01*
D12*
X23250000Y-24750000D02*
X23000000Y-24500000D01*
X23750000Y-24750000D02*
X23500000Y-24500000D01*
X22250000Y-25250000D02*
X24250000Y-25250000D01*
X24250000Y-22750000D02*
X22250000Y-22750000D01*
X24250000Y-21000000D02*
X24250000Y-22750000D01*
X22250000Y-21000000D02*
X24250000Y-21000000D01*
X24250000Y-20500000D02*
X22250000Y-20500000D01*
X24750000Y-24750000D02*
X24250000Y-25250000D01*
X24250000Y-20500000D02*
X24500000Y-20750000D01*
X24750000Y-21000000D02*
X24250000Y-20500000D01*
X24750000Y-24750000D02*
X24750000Y-21000000D01*
X24000000Y-24000000D02*
X24000000Y-23750000D01*
X24000000Y-23500000D02*
X24000000Y-24000000D01*
X24000000Y-23750000D02*
X24000000Y-23500000D01*
X24250000Y-23750000D02*
X24000000Y-23750000D01*
X23750000Y-23750000D02*
X24250000Y-23750000D01*
X22250000Y-21000000D02*
X22250000Y-22750000D01*
X22250000Y-21250000D02*
X22250000Y-21000000D01*
X22250000Y-20500000D02*
X21750000Y-21000000D01*
X21750000Y-24750000D02*
X22250000Y-25250000D01*
X21750000Y-21000000D02*
X21750000Y-24750000D01*
X22750000Y-22000000D02*
X22750000Y-21750000D01*
X22750000Y-21750000D02*
X22750000Y-22000000D01*
X23750000Y-21750000D02*
X22750000Y-21750000D01*
X23750000Y-22000000D02*
X23750000Y-21750000D01*
X23500000Y-22250000D02*
X23500000Y-22000000D01*
X23500000Y-22000000D02*
X23500000Y-22250000D01*
X23000000Y-22000000D02*
X23500000Y-22000000D01*
X23000000Y-22250000D02*
X23000000Y-22000000D01*
X23000000Y-22000000D02*
X23000000Y-22250000D01*
X23250000Y-22000000D02*
X23000000Y-22000000D01*
X23250000Y-21750000D02*
X23250000Y-22000000D01*
X23500000Y-21750000D02*
X23250000Y-21750000D01*
X23500000Y-22000000D02*
X23500000Y-21750000D01*
X23000000Y-22000000D02*
X23500000Y-22000000D01*
X23000000Y-21750000D02*
X23000000Y-22000000D01*
X22750000Y-21750000D02*
X23000000Y-21750000D01*
X23500000Y-21750000D02*
X22750000Y-21750000D01*
X23750000Y-21750000D02*
X23500000Y-21750000D01*
X23500000Y-21750000D02*
X23500000Y-21500000D01*
X23000000Y-21750000D02*
X23500000Y-21750000D01*
X23000000Y-21500000D02*
X23000000Y-21750000D01*
D11*
X30642856Y-22178571D02*
X30285713Y-23178571D01*
X29928571Y-22178571D01*
X29071428Y-21678571D02*
X28928571Y-21678571D01*
X28785714Y-21750000D01*
X28714285Y-21821429D01*
X28642856Y-21964286D01*
X28571428Y-22250000D01*
X28571428Y-22607143D01*
X28642856Y-22892857D01*
X28714285Y-23035714D01*
X28785714Y-23107143D01*
X28928571Y-23178571D01*
X29071428Y-23178571D01*
X29214285Y-23107143D01*
X29285714Y-23035714D01*
X29357142Y-22892857D01*
X29428571Y-22607143D01*
X29428571Y-22250000D01*
X29357142Y-21964286D01*
X29285714Y-21821429D01*
X29214285Y-21750000D01*
X29071428Y-21678571D01*
X27928571Y-23035714D02*
X27857143Y-23107143D01*
X27928571Y-23178571D01*
X28000000Y-23107143D01*
X27928571Y-23035714D01*
X27928571Y-23178571D01*
X26428571Y-23178571D02*
X27285714Y-23178571D01*
X26857142Y-23178571D02*
X26857142Y-21678571D01*
X26999999Y-21892857D01*
X27142857Y-22035714D01*
X27285714Y-22107143D01*
D12*
X22625000Y-23625000D02*
X22375000Y-23375000D01*
X22625000Y-23375000D02*
X22625000Y-23625000D01*
X22375000Y-23625000D02*
X22625000Y-23375000D01*
X23125000Y-23875000D02*
X22875000Y-23625000D01*
X23125000Y-23625000D02*
X23125000Y-23875000D01*
X22875000Y-23875000D02*
X23125000Y-23625000D01*
X22875000Y-23625000D02*
X22875000Y-23875000D01*
X23125000Y-23625000D02*
X22875000Y-23625000D01*
X23125000Y-23875000D02*
X23125000Y-23625000D01*
X22875000Y-23875000D02*
X23125000Y-23875000D01*
X22625000Y-23625000D02*
X22375000Y-23625000D01*
X22625000Y-23375000D02*
X22625000Y-23625000D01*
X22375000Y-23375000D02*
X22625000Y-23375000D01*
X22375000Y-23625000D02*
X22375000Y-23375000D01*
M02*
