G04 #@! TF.FileFunction,Legend,Top*
%FSLAX46Y46*%
G04 Gerber Fmt 4.6, Leading zero omitted, Abs format (unit mm)*
G04 Created by KiCad (PCBNEW 4.0.2-stable) date 21/05/2016 17:12:47*
%MOMM*%
G01*
G04 APERTURE LIST*
%ADD10C,0.100000*%
%ADD11C,0.187500*%
%ADD12C,0.300000*%
%ADD13C,0.150000*%
G04 APERTURE END LIST*
D10*
D11*
X29125000Y-22071428D02*
X29089286Y-22142857D01*
X29089286Y-22250000D01*
X29125000Y-22357143D01*
X29196429Y-22428571D01*
X29267857Y-22464286D01*
X29410714Y-22500000D01*
X29517857Y-22500000D01*
X29660714Y-22464286D01*
X29732143Y-22428571D01*
X29803571Y-22357143D01*
X29839286Y-22250000D01*
X29839286Y-22178571D01*
X29803571Y-22071428D01*
X29767857Y-22035714D01*
X29517857Y-22035714D01*
X29517857Y-22178571D01*
X29839286Y-21714286D02*
X29089286Y-21714286D01*
X29839286Y-21285714D01*
X29089286Y-21285714D01*
X29839286Y-20928572D02*
X29089286Y-20928572D01*
X29089286Y-20750000D01*
X29125000Y-20642857D01*
X29196429Y-20571429D01*
X29267857Y-20535714D01*
X29410714Y-20500000D01*
X29517857Y-20500000D01*
X29660714Y-20535714D01*
X29732143Y-20571429D01*
X29803571Y-20642857D01*
X29839286Y-20750000D01*
X29839286Y-20928572D01*
X27303571Y-22089286D02*
X27339286Y-21982143D01*
X27339286Y-21803572D01*
X27303571Y-21732143D01*
X27267857Y-21696429D01*
X27196429Y-21660714D01*
X27125000Y-21660714D01*
X27053571Y-21696429D01*
X27017857Y-21732143D01*
X26982143Y-21803572D01*
X26946429Y-21946429D01*
X26910714Y-22017857D01*
X26875000Y-22053572D01*
X26803571Y-22089286D01*
X26732143Y-22089286D01*
X26660714Y-22053572D01*
X26625000Y-22017857D01*
X26589286Y-21946429D01*
X26589286Y-21767857D01*
X26625000Y-21660714D01*
X27267857Y-20910714D02*
X27303571Y-20946428D01*
X27339286Y-21053571D01*
X27339286Y-21125000D01*
X27303571Y-21232143D01*
X27232143Y-21303571D01*
X27160714Y-21339286D01*
X27017857Y-21375000D01*
X26910714Y-21375000D01*
X26767857Y-21339286D01*
X26696429Y-21303571D01*
X26625000Y-21232143D01*
X26589286Y-21125000D01*
X26589286Y-21053571D01*
X26625000Y-20946428D01*
X26660714Y-20910714D01*
X24803571Y-22089286D02*
X24839286Y-21982143D01*
X24839286Y-21803572D01*
X24803571Y-21732143D01*
X24767857Y-21696429D01*
X24696429Y-21660714D01*
X24625000Y-21660714D01*
X24553571Y-21696429D01*
X24517857Y-21732143D01*
X24482143Y-21803572D01*
X24446429Y-21946429D01*
X24410714Y-22017857D01*
X24375000Y-22053572D01*
X24303571Y-22089286D01*
X24232143Y-22089286D01*
X24160714Y-22053572D01*
X24125000Y-22017857D01*
X24089286Y-21946429D01*
X24089286Y-21767857D01*
X24125000Y-21660714D01*
X24839286Y-21339286D02*
X24089286Y-21339286D01*
X24089286Y-21160714D01*
X24125000Y-21053571D01*
X24196429Y-20982143D01*
X24267857Y-20946428D01*
X24410714Y-20910714D01*
X24517857Y-20910714D01*
X24660714Y-20946428D01*
X24732143Y-20982143D01*
X24803571Y-21053571D01*
X24839286Y-21160714D01*
X24839286Y-21339286D01*
X22303571Y-21892857D02*
X22339286Y-21785714D01*
X22339286Y-21607143D01*
X22303571Y-21535714D01*
X22267857Y-21500000D01*
X22196429Y-21464285D01*
X22125000Y-21464285D01*
X22053571Y-21500000D01*
X22017857Y-21535714D01*
X21982143Y-21607143D01*
X21946429Y-21750000D01*
X21910714Y-21821428D01*
X21875000Y-21857143D01*
X21803571Y-21892857D01*
X21732143Y-21892857D01*
X21660714Y-21857143D01*
X21625000Y-21821428D01*
X21589286Y-21750000D01*
X21589286Y-21571428D01*
X21625000Y-21464285D01*
X22339286Y-21142857D02*
X21589286Y-21142857D01*
X19803571Y-22107143D02*
X19839286Y-22000000D01*
X19839286Y-21821429D01*
X19803571Y-21750000D01*
X19767857Y-21714286D01*
X19696429Y-21678571D01*
X19625000Y-21678571D01*
X19553571Y-21714286D01*
X19517857Y-21750000D01*
X19482143Y-21821429D01*
X19446429Y-21964286D01*
X19410714Y-22035714D01*
X19375000Y-22071429D01*
X19303571Y-22107143D01*
X19232143Y-22107143D01*
X19160714Y-22071429D01*
X19125000Y-22035714D01*
X19089286Y-21964286D01*
X19089286Y-21785714D01*
X19125000Y-21678571D01*
X19089286Y-21214285D02*
X19089286Y-21071428D01*
X19125000Y-21000000D01*
X19196429Y-20928571D01*
X19339286Y-20892857D01*
X19589286Y-20892857D01*
X19732143Y-20928571D01*
X19803571Y-21000000D01*
X19839286Y-21071428D01*
X19839286Y-21214285D01*
X19803571Y-21285714D01*
X19732143Y-21357143D01*
X19589286Y-21392857D01*
X19339286Y-21392857D01*
X19196429Y-21357143D01*
X19125000Y-21285714D01*
X19089286Y-21214285D01*
X16589286Y-22499999D02*
X17339286Y-22249999D01*
X16589286Y-21999999D01*
X17339286Y-21750000D02*
X16589286Y-21750000D01*
X16589286Y-21571428D01*
X16625000Y-21464285D01*
X16696429Y-21392857D01*
X16767857Y-21357142D01*
X16910714Y-21321428D01*
X17017857Y-21321428D01*
X17160714Y-21357142D01*
X17232143Y-21392857D01*
X17303571Y-21464285D01*
X17339286Y-21571428D01*
X17339286Y-21750000D01*
X17339286Y-21000000D02*
X16589286Y-21000000D01*
X16589286Y-20821428D01*
X16625000Y-20714285D01*
X16696429Y-20642857D01*
X16767857Y-20607142D01*
X16910714Y-20571428D01*
X17017857Y-20571428D01*
X17160714Y-20607142D01*
X17232143Y-20642857D01*
X17303571Y-20714285D01*
X17339286Y-20821428D01*
X17339286Y-21000000D01*
D12*
X16785714Y-22875000D02*
X16642857Y-22815476D01*
X16428571Y-22815476D01*
X16214286Y-22875000D01*
X16071428Y-22994048D01*
X16000000Y-23113095D01*
X15928571Y-23351190D01*
X15928571Y-23529762D01*
X16000000Y-23767857D01*
X16071428Y-23886905D01*
X16214286Y-24005952D01*
X16428571Y-24065476D01*
X16571428Y-24065476D01*
X16785714Y-24005952D01*
X16857143Y-23946429D01*
X16857143Y-23529762D01*
X16571428Y-23529762D01*
X18142857Y-24065476D02*
X18142857Y-23410714D01*
X18071428Y-23291667D01*
X17928571Y-23232143D01*
X17642857Y-23232143D01*
X17500000Y-23291667D01*
X18142857Y-24005952D02*
X18000000Y-24065476D01*
X17642857Y-24065476D01*
X17500000Y-24005952D01*
X17428571Y-23886905D01*
X17428571Y-23767857D01*
X17500000Y-23648810D01*
X17642857Y-23589286D01*
X18000000Y-23589286D01*
X18142857Y-23529762D01*
X18857143Y-24065476D02*
X18857143Y-23232143D01*
X18857143Y-23351190D02*
X18928571Y-23291667D01*
X19071429Y-23232143D01*
X19285714Y-23232143D01*
X19428571Y-23291667D01*
X19500000Y-23410714D01*
X19500000Y-24065476D01*
X19500000Y-23410714D02*
X19571429Y-23291667D01*
X19714286Y-23232143D01*
X19928571Y-23232143D01*
X20071429Y-23291667D01*
X20142857Y-23410714D01*
X20142857Y-24065476D01*
X21428571Y-24005952D02*
X21285714Y-24065476D01*
X21000000Y-24065476D01*
X20857143Y-24005952D01*
X20785714Y-23886905D01*
X20785714Y-23410714D01*
X20857143Y-23291667D01*
X21000000Y-23232143D01*
X21285714Y-23232143D01*
X21428571Y-23291667D01*
X21500000Y-23410714D01*
X21500000Y-23529762D01*
X20785714Y-23648810D01*
X22142857Y-24065476D02*
X22142857Y-22815476D01*
X22142857Y-23291667D02*
X22285714Y-23232143D01*
X22571428Y-23232143D01*
X22714285Y-23291667D01*
X22785714Y-23351190D01*
X22857143Y-23470238D01*
X22857143Y-23827381D01*
X22785714Y-23946429D01*
X22714285Y-24005952D01*
X22571428Y-24065476D01*
X22285714Y-24065476D01*
X22142857Y-24005952D01*
X23714286Y-24065476D02*
X23571428Y-24005952D01*
X23500000Y-23946429D01*
X23428571Y-23827381D01*
X23428571Y-23470238D01*
X23500000Y-23351190D01*
X23571428Y-23291667D01*
X23714286Y-23232143D01*
X23928571Y-23232143D01*
X24071428Y-23291667D01*
X24142857Y-23351190D01*
X24214286Y-23470238D01*
X24214286Y-23827381D01*
X24142857Y-23946429D01*
X24071428Y-24005952D01*
X23928571Y-24065476D01*
X23714286Y-24065476D01*
X24714286Y-23232143D02*
X25071429Y-24065476D01*
X25428571Y-23232143D02*
X25071429Y-24065476D01*
X24928571Y-24363095D01*
X24857143Y-24422619D01*
X24714286Y-24482143D01*
X27357143Y-24065476D02*
X27214285Y-24005952D01*
X27142857Y-23886905D01*
X27142857Y-22815476D01*
X27928571Y-24065476D02*
X27928571Y-23232143D01*
X27928571Y-22815476D02*
X27857142Y-22875000D01*
X27928571Y-22934524D01*
X27999999Y-22875000D01*
X27928571Y-22815476D01*
X27928571Y-22934524D01*
X28642857Y-23232143D02*
X28642857Y-24065476D01*
X28642857Y-23351190D02*
X28714285Y-23291667D01*
X28857143Y-23232143D01*
X29071428Y-23232143D01*
X29214285Y-23291667D01*
X29285714Y-23410714D01*
X29285714Y-24065476D01*
X30000000Y-24065476D02*
X30000000Y-22815476D01*
X30142857Y-23589286D02*
X30571428Y-24065476D01*
X30571428Y-23232143D02*
X30000000Y-23708333D01*
D13*
X18170000Y-20070000D02*
X30870000Y-20070000D01*
X30870000Y-20070000D02*
X30870000Y-17530000D01*
X30870000Y-17530000D02*
X18170000Y-17530000D01*
X15350000Y-20350000D02*
X16900000Y-20350000D01*
X18170000Y-20070000D02*
X18170000Y-17530000D01*
X16900000Y-17250000D02*
X15350000Y-17250000D01*
X15350000Y-17250000D02*
X15350000Y-20350000D01*
M02*
